<?xml version="1.0" encoding="UTF-8"?>
<svg xmlns="http://www.w3.org/2000/svg" viewBox="0 0 1400 400" role="img" aria-labelledby="title desc">
  <title id="title">DealLens logo</title>
  <desc id="desc">A magnifying glass framing a vehicle and rising analytics bars beside the DealLens wordmark.</desc>
	<style>path:last-of-type { transform: translateX(24px); }</style>

  <!-- Magnifying glass -->
  <circle cx="225" cy="195" r="126" fill="none" stroke="#10283F" stroke-width="22"/>
  <path d="M 314 284 L 376 346" fill="none" stroke="#10283F" stroke-width="34" stroke-linecap="round"/>

  <!-- Blue focus arc -->
  <path d="M 78 205 A 147 147 0 0 1 225 58" fill="none" stroke="#1478C9" stroke-width="18" stroke-linecap="butt"/>

  <!-- Car silhouette -->
  <g fill="#10283F">
    <path d="M 152 171
             C 157 151 168 132 181 116
             C 190 106 202 101 216 101
             H 247
             C 261 101 273 106 282 116
             C 295 132 306 151 311 171
             C 321 178 326 190 326 206
             V 246
             C 326 255 319 262 310 262
             H 297
             C 288 262 281 255 281 246
             V 240
             H 177
             V 246
             C 177 255 170 262 161 262
             H 148
             C 139 262 132 255 132 246
             V 206
             C 132 190 137 178 147 171 Z"/>
    <rect x="120" y="162" width="30" height="13" rx="6.5"/>
    <rect x="308" y="162" width="30" height="13" rx="6.5"/>
  </g>

  <!-- Windshield -->
  <path d="M 177 162 L 194 124 C 198 116 206 112 216 112 H 247 C 257 112 265 116 269 124 L 286 162 Z"
        fill="#FFFFFF"/>

  <!-- Headlights -->
  <path d="M 147 190 C 158 189 171 191 180 196 L 183 210 C 171 211 157 209 147 204 Z" fill="#FFFFFF"/>
  <path d="M 311 190 C 300 189 287 191 278 196 L 275 210 C 287 211 301 209 311 204 Z" fill="#FFFFFF"/>

  <!-- Grille -->
  <rect x="194" y="201" width="75" height="20" rx="10" fill="#1C3A55"/>

  <!-- Analytics bars -->
  <g stroke="#FFFFFF" stroke-width="7" stroke-linejoin="round">
    <rect x="165" y="246" width="39" height="34" rx="2" fill="#78D0D0"/>
    <rect x="210" y="225" width="39" height="55" rx="2" fill="#45B8BE"/>
    <rect x="255" y="190" width="39" height="90" rx="2" fill="#45B8BE"/>
  </g>

  <!-- Wordmark converted to vector paths -->
  <path d="M 473.442 159.845 L 473.442 256.214 L 493.709 256.214 Q 519.369 256.214 531.269 244.606 Q 543.169 232.972 543.169 207.897 Q 543.169 183.008 531.269 171.427 Q 519.369 159.845 493.709 159.845 L 473.442 159.845 Z M 456.681 146.059 L 491.133 146.059 Q 527.152 146.059 543.992 161.041 Q 560.859 176.022 560.859 207.897 Q 560.859 239.958 543.913 254.992 Q 526.992 270 491.133 270 L 456.681 270 L 456.681 146.059 Z M 666.449 219.691 L 666.449 227.155 L 596.217 227.155 Q 597.227 242.933 605.727 251.194 Q 614.227 259.455 629.421 259.455 Q 638.213 259.455 646.474 257.303 Q 654.735 255.152 662.889 250.822 L 662.889 265.272 Q 654.655 268.752 646.022 270.584 Q 637.389 272.417 628.517 272.417 Q 606.258 272.417 593.269 259.481 Q 580.28 246.519 580.28 224.419 Q 580.28 201.602 592.605 188.214 Q 604.93 174.8 625.861 174.8 Q 644.614 174.8 655.531 186.886 Q 666.449 198.945 666.449 219.691 Z M 651.175 215.202 Q 651.016 202.691 644.163 195.227 Q 637.31 187.736 626.021 187.736 Q 613.244 187.736 605.567 194.961 Q 597.891 202.186 596.722 215.308 L 651.175 215.202 Z M 733.771 223.277 Q 715.257 223.277 708.112 227.5 Q 700.967 231.723 700.967 241.95 Q 700.967 250.078 706.332 254.859 Q 711.698 259.614 720.888 259.614 Q 733.612 259.614 741.288 250.609 Q 748.965 241.605 748.965 226.677 L 748.965 223.277 L 733.771 223.277 Z M 764.238 216.955 L 764.238 270 L 748.965 270 L 748.965 255.895 Q 743.732 264.342 735.923 268.38 Q 728.113 272.417 716.824 272.417 Q 702.56 272.417 694.113 264.395 Q 685.693 256.373 685.693 242.933 Q 685.693 227.261 696.185 219.292 Q 706.704 211.323 727.529 211.323 L 748.965 211.323 L 748.965 209.809 Q 748.965 199.264 742.032 193.5 Q 735.099 187.736 722.562 187.736 Q 714.593 187.736 707.023 189.648 Q 699.479 191.561 692.52 195.386 L 692.52 181.255 Q 700.887 178.014 708.776 176.42 Q 716.665 174.8 724.129 174.8 Q 744.317 174.8 754.278 185.266 Q 764.238 195.705 764.238 216.955 Z M 795.685 140.827 L 810.959 140.827 L 810.959 270 L 795.685 270 L 795.685 140.827 Z" fill="#10283F"/>
  <path d="M 808.959 146.059 L 825.72 146.059 L 825.72 255.895 L 886.07 255.895 L 886.07 270 L 808.959 270 L 808.959 146.059 Z M 979.56 219.691 L 979.56 227.155 L 909.328 227.155 Q 910.338 242.933 918.838 251.194 Q 927.338 259.455 942.531 259.455 Q 951.324 259.455 959.585 257.303 Q 967.846 255.152 976 250.822 L 976 265.272 Q 967.766 268.752 959.133 270.584 Q 950.5 272.417 941.628 272.417 Q 919.369 272.417 906.38 259.481 Q 893.391 246.519 893.391 224.419 Q 893.391 201.602 905.716 188.214 Q 918.041 174.8 938.972 174.8 Q 957.725 174.8 968.642 186.886 Q 979.56 198.945 979.56 219.691 Z M 964.286 215.202 Q 964.127 202.691 957.274 195.227 Q 950.421 187.736 939.131 187.736 Q 926.355 187.736 918.678 194.961 Q 911.002 202.186 909.833 215.308 L 964.286 215.202 Z M 1081.918 213.873 L 1081.918 270 L 1066.645 270 L 1066.645 214.378 Q 1066.645 201.177 1061.492 194.642 Q 1056.338 188.081 1046.059 188.081 Q 1033.681 188.081 1026.535 195.97 Q 1019.39 203.833 1019.39 217.459 L 1019.39 270 L 1004.037 270 L 1004.037 177.031 L 1019.39 177.031 L 1019.39 191.481 Q 1024.888 183.088 1032.299 178.944 Q 1039.737 174.8 1049.459 174.8 Q 1065.476 174.8 1073.684 184.708 Q 1081.918 194.616 1081.918 213.873 Z M 1171.626 179.767 L 1171.626 194.217 Q 1165.172 190.897 1158.186 189.25 Q 1151.226 187.577 1143.736 187.577 Q 1132.367 187.577 1126.683 191.056 Q 1120.998 194.536 1120.998 201.522 Q 1120.998 206.834 1125.062 209.863 Q 1129.126 212.891 1141.425 215.627 L 1146.658 216.795 Q 1162.914 220.275 1169.767 226.623 Q 1176.62 232.972 1176.62 244.341 Q 1176.62 257.303 1166.367 264.873 Q 1156.114 272.417 1138.184 272.417 Q 1130.72 272.417 1122.619 270.956 Q 1114.517 269.495 1105.565 266.6 L 1105.565 250.822 Q 1114.039 255.231 1122.247 257.436 Q 1130.454 259.614 1138.529 259.614 Q 1149.314 259.614 1155.104 255.922 Q 1160.922 252.23 1160.922 245.509 Q 1160.922 239.294 1156.725 235.973 Q 1152.554 232.653 1138.344 229.572 L 1133.031 228.323 Q 1118.847 225.348 1112.525 219.159 Q 1106.229 212.97 1106.229 202.186 Q 1106.229 189.064 1115.526 181.945 Q 1124.823 174.8 1141.929 174.8 Q 1150.376 174.8 1157.84 176.048 Q 1165.331 177.27 1171.626 179.767 Z" fill="#1478C9"/>
</svg>
